# xmcd
# Track frame offsets:
# 150
# 25577
# 70685
# 87462
# 161247
# 197980
# 214095
# 232965
#
# Disc length: 3588 seconds
# Revision: 0
# Processed by: cddbd v1.4PL0 Copyright (c) Steve Scherf et al.
# Submitted via: VisiTrax 2.9.5.181 - For more info visit www.synapsa.com
#
DISCID=680e0208
DTITLE=Little Milton - Live At Westfille Prison
DYEAR=1995
DGENRE=Rhythm and Blues
TTITLE0=I'd Rather Drink Muddy Water
TTITLE1=Eight Men, Four Women
TTITLE2=Friend Of Mine
TTITLE3=Medley (How Could You Do It To Me, Part Time Love, Somebody's Sleepin
TTITLE3=g In My Bed, I Got To Love Somebody's Baby, Wlaking The Back Streets A
TTITLE3=nd Crying, Little Bluebird, Drowning On Dry Land)
TTITLE4=Bad Luck
TTITLE5=You're The One
TTITLE6=Loving You (Is The Best Thing That Happened To Me)
TTITLE7=That's How Strong My Love Is
EXTD=Recorded Live , January 14, 1983 Westville, Indiana
EXTT0=
EXTT1=
EXTT2=
EXTT3=
EXTT4=
EXTT5=
EXTT6=
EXTT7=
PLAYORDER=
